# xmcd
#
# Track frame offsets:
#	150
#	23460
#	50617
#	72566
#	85748
#	105470
#	124010
#	141329
#	165964
#	181034
#	202209
#	221959
#	244986
#	259831
#
# Disc length: 3797 seconds
#
# Revision: 2
# Processed by: cddbd v1.5.2PL0 Copyright (c) Steve Scherf et al.
# Submitted via: audiograbber 1.83.01
#
DISCID=ca0ed30e
DTITLE=Various Artist - Luxury Liner - Volume 1
DYEAR=1997
DGENRE=Alternative Country
TTITLE0=Cheri Knight - The Knitter
TTITLE1=Big Back Forty - Lot's Song
TTITLE2=Rainravens - What Did You Save For Me
TTITLE3=Haynes Boys - Guardian Angel
TTITLE4=Granfaloon Bus - OK
TTITLE5=Blue Mountain - Mountain Girl
TTITLE6=Richmond Fontaine - Whirlpool
TTITLE7=Hazeldine - Apothecary
TTITLE8=Whiskeytown - Midway Park
TTITLE9=Beacon Hillbillies - Midnight Sun
TTITLE10=Chris Burroughs - Pray For Rain
TTITLE11=Willard Grant Conspiracy - The Ostrich Song
TTITLE12=Loose Diamonds - You Keep Me (Hanging On)
TTITLE13=Neal Casal - Eddy and Diamonds
EXTD=
EXTT0=
EXTT1=
EXTT2=
EXTT3=
EXTT4=
EXTT5=
EXTT6=
EXTT7=
EXTT8=
EXTT9=
EXTT10=
EXTT11=
EXTT12=
EXTT13=
PLAYORDER=
